<svg width="20" height="20" viewBox="0 0 20 20" fill="none" xmlns="http://www.w3.org/2000/svg">
<g clip-path="url(#clip0_88_368)">
<path d="M9.99998 0.441895C7.67298 0.441978 5.42189 1.27014 3.64964 2.77806C1.87731 4.28598 0.699392 6.37539 0.326642 8.67239C-0.0461076 10.9693 0.410643 13.324 1.61514 15.3151C2.81956 17.306 4.69323 18.8035 6.90081 19.5395C7.39081 19.6252 7.57456 19.3312 7.57456 19.074C7.57456 18.8412 7.56231 18.0695 7.56231 17.2487C5.10006 17.702 4.46306 16.6486 4.26706 16.0973C4.04956 15.5612 3.70481 15.0861 3.26256 14.7131C2.91956 14.5293 2.42956 14.0761 3.25031 14.0638C3.56373 14.0978 3.86423 14.2069 4.12656 14.3817C4.38881 14.5566 4.60514 14.7921 4.75706 15.0683C4.89106 15.3091 5.07131 15.5211 5.28739 15.6921C5.50348 15.8631 5.75123 15.9898 6.01639 16.0648C6.28156 16.1399 6.55889 16.162 6.83256 16.1297C7.10623 16.0975 7.37089 16.0116 7.61123 15.8768C7.65364 15.3786 7.87573 14.9127 8.23606 14.5661C6.05556 14.3211 3.77706 13.4758 3.77706 9.72731C3.76331 8.75339 4.12264 7.81106 4.78156 7.09364C4.48198 6.24714 4.51698 5.31814 4.87956 4.49664C4.87956 4.49664 5.70023 4.23939 7.57456 5.50114C9.17806 5.06014 10.8709 5.06014 12.4745 5.50114C14.3487 4.22714 15.1695 4.49664 15.1695 4.49664C15.5321 5.31814 15.5671 6.24714 15.2675 7.09364C15.9282 7.80981 16.2881 8.75306 16.272 9.72731C16.272 13.4881 13.9812 14.3211 11.8007 14.5661C12.0346 14.8031 12.2146 15.0877 12.3288 15.4005C12.443 15.7134 12.4885 16.0471 12.4622 16.3791C12.4622 17.6899 12.45 18.7432 12.45 19.074C12.45 19.3312 12.6337 19.6375 13.1237 19.5395C15.3274 18.7976 17.1956 17.2966 18.395 15.3046C19.5944 13.3125 20.0467 10.959 19.6714 8.66423C19.2961 6.36956 18.1175 4.28289 16.3459 2.77681C14.5744 1.27064 12.3252 0.443145 9.99998 0.441895Z" fill="#354764"/>
</g>
<defs>
<clipPath id="clip0_88_368">
<rect width="20" height="20" fill="white"/>
</clipPath>
</defs>
</svg>
