<svg width="100" height="29" viewBox="0 0 100 29" fill="none" xmlns="http://www.w3.org/2000/svg">
<path d="M94.0001 17.0001C95.5914 17.0001 97.1175 17.6322 98.2427 18.7574C99.368 19.8826 100 21.4088 100 23.0001C100 24.5914 99.368 26.1175 98.2427 27.2427C97.1175 28.3679 95.5914 29.0001 94.0001 29.0001L94.0001 23.0001V17.0001Z" fill="#BC8747"/>
<path d="M11.0831 1.08507C11.8248 0.38804 12.8044 0 13.8223 0H92C96.4183 0 100 3.58172 100 8V23H13.8223C12.8044 23 11.8248 22.612 11.0831 21.9149L1.55096 12.9575C0.71043 12.1676 0.710429 10.8324 1.55096 10.0425L11.0831 1.08507Z" fill="#FBB45E"/>
</svg>
