<svg width="1441" height="326" viewBox="0 0 1441 326" fill="none" xmlns="http://www.w3.org/2000/svg">
<path d="M1441 33.773L1406.58 35.9873C1372.15 38.372 1303.3 42.8006 1234.78 68.1803C1166.09 93.3896 1097.88 139.38 1029.19 157.605C960.667 175.661 891.819 166.122 823.291 138.869C754.604 111.615 686.396 66.6473 617.709 64.7736C549.181 62.7296 480.333 103.61 411.806 92.538C343.118 81.4663 274.911 18.443 206.223 3.62399C137.696 -11.0247 68.8479 22.3606 34.424 39.2236L0.000112057 55.9163V325.043H34.424C68.8479 325.043 137.696 325.043 206.223 325.043C274.911 325.043 343.118 325.043 411.806 325.043C480.333 325.043 549.181 325.043 617.709 325.043C686.396 325.043 754.604 325.043 823.291 325.043C891.819 325.043 960.667 325.043 1029.19 325.043C1097.88 325.043 1166.09 325.043 1234.78 325.043C1303.3 325.043 1372.15 325.043 1406.58 325.043H1441V33.773Z" fill="#FEE8CD"/>
</svg>
