<svg width="1441" height="902" viewBox="0 0 1441 902" fill="none" xmlns="http://www.w3.org/2000/svg">
<g clip-path="url(#clip0_144_135)">
<path d="M1441 0H0V902H1441V0Z" fill="#E2F4E4"/>
<path d="M0 257.07L34.4239 255.116C68.8478 253.011 137.696 249.102 206.223 226.703C274.911 204.453 343.118 163.863 411.806 147.778C480.333 131.842 549.181 140.261 617.709 164.314C686.396 188.368 754.604 228.056 823.291 229.709C891.819 231.513 960.667 195.433 1029.19 205.205C1097.88 214.977 1166.09 270.6 1234.78 283.679C1303.3 296.608 1372.15 267.142 1406.58 252.259L1441 237.527V0H1406.58C1372.15 0 1303.3 0 1234.78 0C1166.09 0 1097.88 0 1029.19 0C960.667 0 891.819 0 823.291 0C754.604 0 686.396 0 617.709 0C549.181 0 480.333 0 411.806 0C343.118 0 274.911 0 206.223 0C137.696 0 68.8478 0 34.4239 0H0V257.07Z" fill="white"/>
</g>
<defs>
<clipPath id="clip0_144_135">
<rect width="1441" height="902" fill="white"/>
</clipPath>
</defs>
</svg>
