<svg width="35" height="34" viewBox="0 0 35 34" fill="none" xmlns="http://www.w3.org/2000/svg">
<path d="M34.3239 3.97053C35.3538 2.94233 35.1897 1.41516 33.9503 0.560843C32.7108 -0.293473 30.8698 -0.157377 29.84 0.870821L17.5 13.1562L5.16003 0.870821C4.13019 -0.157377 2.28921 -0.293464 1.04975 0.560852C-0.18971 1.41517 -0.35377 2.94233 0.676087 3.97053L13.6996 16.9364L0.676087 29.9022C-0.35377 30.9304 -0.189721 32.4576 1.04975 33.3119C2.28922 34.1662 4.13019 34.0301 5.16003 33.0019L17.5 20.7165L29.84 33.0019C30.8698 34.0301 32.7108 34.1662 33.9503 33.3119C35.1897 32.4576 35.3538 30.9304 34.3239 29.9022L21.3004 16.9364L34.3239 3.97053Z" fill="#FBB45E"/>
</svg>
