<svg width="48" height="48" viewBox="0 0 48 48" fill="none" xmlns="http://www.w3.org/2000/svg">
<path d="M35.3267 14.9803C36.0201 14.265 35.9096 13.2026 35.0752 12.6083C34.2407 12.014 33.0013 12.1087 32.3079 12.824L24.0001 21.3703L15.6922 12.824C14.9989 12.1087 13.7595 12.014 12.925 12.6083C12.0905 13.2026 11.9801 14.265 12.6734 14.9803L21.4415 24L12.6734 33.0197C11.9801 33.735 12.0905 34.7974 12.925 35.3917C13.7595 35.986 14.9989 35.8913 15.6922 35.176L24.0001 26.6297L32.3079 35.176C33.0013 35.8913 34.2407 35.986 35.0752 35.3917C35.9096 34.7974 36.0201 33.735 35.3267 33.0197L26.5587 24L35.3267 14.9803Z" fill="#FBB45E"/>
<circle cx="24" cy="24" r="21.5" stroke="#FBB45E" stroke-width="5"/>
</svg>
